<?xml version="1.0" encoding="UTF-8"?>
<svg xmlns="http://www.w3.org/2000/svg" xmlns:xlink="http://www.w3.org/1999/xlink" width="24px" height="24px" viewBox="0 0 24 24" version="1.1">
<g id="surface1">
<path style=" stroke:none;fill-rule:nonzero;fill:rgb(0%,0%,0%);fill-opacity:1;" d="M 12 15.75 C 13.183594 15.75 14.1875 15.335938 15.011719 14.511719 C 15.835938 13.6875 16.25 12.683594 16.25 11.5 C 16.25 10.316406 15.835938 9.3125 15.011719 8.488281 C 14.1875 7.664062 13.183594 7.25 12 7.25 C 10.816406 7.25 9.8125 7.664062 8.988281 8.488281 C 8.164062 9.3125 7.75 10.316406 7.75 11.5 C 7.75 12.683594 8.164062 13.6875 8.988281 14.511719 C 9.8125 15.335938 10.816406 15.75 12 15.75 Z M 12 14.300781 C 11.214844 14.300781 10.554688 14.027344 10.011719 13.488281 C 9.472656 12.945312 9.199219 12.285156 9.199219 11.5 C 9.199219 10.714844 9.472656 10.054688 10.011719 9.511719 C 10.554688 8.972656 11.214844 8.699219 12 8.699219 C 12.785156 8.699219 13.445312 8.972656 13.988281 9.511719 C 14.527344 10.054688 14.800781 10.714844 14.800781 11.5 C 14.800781 12.285156 14.527344 12.945312 13.988281 13.488281 C 13.445312 14.027344 12.785156 14.300781 12 14.300781 Z M 12 19 C 9.566406 19 7.367188 18.308594 5.398438 16.925781 C 3.433594 15.542969 1.964844 13.734375 1 11.5 C 1.964844 9.265625 3.433594 7.457031 5.398438 6.074219 C 7.367188 4.691406 9.566406 4 12 4 C 14.433594 4 16.632812 4.691406 18.601562 6.074219 C 20.566406 7.457031 22.035156 9.265625 23 11.5 C 22.035156 13.734375 20.566406 15.542969 18.601562 16.925781 C 16.632812 18.308594 14.433594 19 12 19 Z M 12 11.5 Z M 12 17.5 C 14.015625 17.5 15.871094 16.953125 17.5625 15.863281 C 19.253906 14.769531 20.542969 13.316406 21.425781 11.5 C 20.542969 9.683594 19.253906 8.230469 17.5625 7.136719 C 15.871094 6.046875 14.015625 5.5 12 5.5 C 9.984375 5.5 8.128906 6.046875 6.4375 7.136719 C 4.746094 8.230469 3.449219 9.683594 2.550781 11.5 C 3.449219 13.316406 4.746094 14.769531 6.4375 15.863281 C 8.128906 16.953125 9.984375 17.5 12 17.5 Z M 12 17.5 "/>
</g>
</svg>
